<?xml version="1.0" encoding="UTF-8"?>
<svg version="1.1" xmlns="http://www.w3.org/2000/svg" width="2000" height="429">
<path d="M0 0 C65.34 0 130.68 0 198 0 C206.58 17.11875 215.16 34.2375 224 51.875 C226.71476562 57.28632324 229.42953125 62.69764648 232.2265625 68.27294922 C235.52734375 74.86547852 235.52734375 74.86547852 237.06982422 77.94876099 C238.15168772 80.10940969 239.23513909 82.26926375 240.31982422 84.42849731 C241.95911304 87.69251379 243.59340148 90.95898835 245.2265625 94.22607422 C245.71371735 95.19318769 246.20087219 96.16030117 246.70278931 97.15672112 C247.13940887 98.03271524 247.57602844 98.90870937 248.02587891 99.81124878 C248.40934479 100.57633696 248.79281067 101.34142513 249.18789673 102.1296978 C250 104 250 104 250 106 C280.36 106 310.72 106 342 106 C342 212.59 342 319.18 342 429 C181.62 429 21.24 429 -144 429 C-144 322.41 -144 215.82 -144 106 C-113.64 106 -83.28 106 -52 106 C-51.34 104.02 -50.68 102.04 -50 100 C-49.32068521 98.47858341 -48.60793921 96.97161743 -47.86129761 95.48208618 C-47.43871611 94.63416819 -47.01613461 93.78625019 -46.5807476 92.91263771 C-45.88891475 91.53976632 -45.88891475 91.53976632 -45.18310547 90.13916016 C-44.68725512 89.14721838 -44.19140476 88.1552766 -43.68052864 87.13327599 C-42.07980784 83.93332324 -40.47361592 80.73615306 -38.8671875 77.5390625 C-37.87602066 75.55967056 -36.88521454 73.58009795 -35.89477539 71.6003418 C-32.22588741 64.27303787 -28.55002192 56.94922936 -24.875 49.625 C-16.66625 33.24875 -8.4575 16.8725 0 0 Z M35 53 C28.08480675 66.78371304 21.17416634 80.56970133 14.2689743 94.35842705 C11.06283328 100.76038649 7.85519356 107.16158679 4.64404297 113.56103516 C1.84595574 119.13730587 -0.9493378 124.71496633 -3.74125338 130.29432976 C-5.22031892 133.24984835 -6.70120992 136.20442911 -8.18461609 139.15777206 C-9.83836286 142.45083887 -11.48715978 145.74633794 -13.13476562 149.04248047 C-13.63035477 150.0264682 -14.12594391 151.01045593 -14.6365509 152.02426147 C-15.30547615 153.36623596 -15.30547615 153.36623596 -15.98791504 154.73532104 C-16.37875526 155.51515791 -16.76959549 156.29499477 -17.17227936 157.09846306 C-18.1330392 158.95998715 -18.1330392 158.95998715 -18 161 C-41.43 161 -64.86 161 -89 161 C-89 231.95 -89 302.9 -89 376 C35.08 376 159.16 376 287 376 C287 305.05 287 234.1 287 161 C263.57 160.67 240.14 160.34 216 160 C212.18566406 152.35972656 208.37132812 144.71945313 204.44140625 136.84765625 C201.72448946 131.40806703 199.00732134 125.96860392 196.28978825 120.52932262 C192.76521479 113.47462461 189.24124506 106.41962709 185.71948242 99.36352539 C182.93209313 93.77879759 180.14331099 88.19476798 177.35283512 82.61158174 C175.87456419 79.65373319 174.39721421 76.69543044 172.92111397 73.73649788 C171.27550567 70.43807196 169.62743855 67.14088612 167.97875977 63.84399414 C167.4867659 62.85641113 166.99477203 61.86882813 166.48786926 60.85131836 C166.04054443 59.95804337 165.5932196 59.06476837 165.13233948 58.14442444 C164.74242105 57.36366578 164.35250261 56.58290712 163.95076847 55.77848911 C163.12654504 54.02980388 163.12654504 54.02980388 162 53 C160.35509451 52.90391337 158.70604309 52.87812213 157.05833435 52.87974548 C155.98836212 52.87837082 154.91838989 52.87699615 153.81599426 52.87557983 C152.63204575 52.87917511 151.44809723 52.88277039 150.22827148 52.88647461 C148.989422 52.88632858 147.75057251 52.88618256 146.47418213 52.8860321 C143.06730167 52.88661108 139.66048116 52.89164041 136.25361133 52.89860606 C132.69683174 52.90484007 129.14005142 52.90544344 125.58326721 52.90663147 C118.84363418 52.90974465 112.10401729 52.91795785 105.36439139 52.92798096 C97.69341602 52.93914252 90.02243989 52.94465265 82.35145843 52.94967639 C66.56762959 52.96014048 50.78381687 52.97773965 35 53 Z " fill="#365982" transform="translate(1657,0)"/>
<path d="M0 0 C19.31503823 18.21720302 31.88452906 45.11208296 32.71484375 71.72265625 C33.11514767 99.66488946 26.52686976 126.5154114 7.51171875 147.82421875 C6.84914063 148.62859375 6.1865625 149.43296875 5.50390625 150.26171875 C-12.98269948 172.09092108 -39.9075564 184.15213038 -68.11328125 186.63671875 C-97.40071155 188.33245809 -125.51357262 178.7566752 -147.6003418 159.55541992 C-167.86791956 141.22729438 -182.11311454 115.54357638 -183.64794922 87.95410156 C-184.87924282 55.2865029 -176.1746273 27.51681663 -154.03515625 3.12109375 C-139.50359224 -12.09030951 -121.84863463 -21.91161328 -101.48828125 -27.17578125 C-100.68003906 -27.38847656 -99.87179687 -27.60117188 -99.0390625 -27.8203125 C-62.83916148 -36.60178936 -27.1715432 -23.7591045 0 0 Z M-115.48828125 42.82421875 C-119.73457416 47.68366171 -122.98801401 52.87913887 -125.48828125 58.82421875 C-125.78863281 59.50355469 -126.08898438 60.18289062 -126.3984375 60.8828125 C-130.54384289 72.00792372 -130.04835186 86.33029222 -125.67578125 97.26171875 C-125.28390625 98.10734375 -124.89203125 98.95296875 -124.48828125 99.82421875 C-124.13765625 100.60796875 -123.78703125 101.39171875 -123.42578125 102.19921875 C-117.17047501 114.70983124 -106.06435325 124.28636754 -92.98828125 129.046875 C-78.41986717 133.57674125 -64.51920873 132.65526845 -50.80078125 125.69921875 C-36.75797824 117.60216225 -27.99774948 106.38915748 -23.48828125 90.82421875 C-19.99561223 76.7128983 -22.88232297 63.04698343 -29.73828125 50.51171875 C-38.2263407 36.84450439 -51.00259788 29.0120528 -66.42578125 25.07421875 C-85.68592553 23.50196207 -101.96087282 28.64459599 -115.48828125 42.82421875 Z " fill="#365982" transform="translate(1831.48828125,163.17578125)"/>
<path d="M0 0 C0 8.25 0 16.5 0 25 C-2.04058594 24.9278125 -4.08117187 24.855625 -6.18359375 24.78125 C-27.08630219 24.05748525 -27.08630219 24.05748525 -48 24 C-47.07380859 24.31130859 -47.07380859 24.31130859 -46.12890625 24.62890625 C-34.43072491 28.88440905 -26.25682658 36.07497464 -20.75 47.25 C-14.42931504 62.70934196 -15.26915349 82.86518582 -21.25 98.25 C-23.55842976 103.42709247 -26.25887617 107.75207368 -30 112 C-30.52335938 112.60457031 -31.04671875 113.20914063 -31.5859375 113.83203125 C-42.94448158 126.07046254 -60.62214073 131.30004978 -76.94259644 132.15396118 C-79.90697599 132.1801663 -82.86422425 132.14794579 -85.828125 132.08984375 C-88.03124797 132.06944064 -90.23437305 132.049265 -92.4375 132.02929688 C-95.85621829 131.98572594 -99.27478301 131.93711167 -102.69335938 131.88354492 C-106.02994219 131.83513681 -109.36631783 131.80537293 -112.703125 131.77734375 C-113.71787903 131.75558578 -114.73263306 131.73382782 -115.77813721 131.71141052 C-121.91181668 131.66879322 -126.42887848 132.36981716 -132 135 C-133.93682248 137.34032716 -133.98899193 138.92608869 -134.4375 141.9375 C-133.83955128 146.12314101 -132.19306577 147.29653224 -129 150 C-115.57470195 155.60920733 -99.47186197 155.64003058 -85.1875 157 C-40.66978932 161.25681369 -40.66978932 161.25681369 -27 169 C-26.20335937 169.42925781 -25.40671875 169.85851562 -24.5859375 170.30078125 C-16.69209395 174.98692583 -11.00419249 182.46561161 -8.5 191.33984375 C-6.00330198 204.62305744 -6.11272715 217.96771332 -13.125 229.9375 C-22.82061056 243.74210627 -39.36455416 249.51750652 -55.3203125 252.65234375 C-87.94164457 258.03682868 -130.94829064 259.65470586 -160 241 C-166.79408155 235.80630211 -171.16261041 229.36811126 -173 221 C-173.80911072 211.60427147 -174.65556876 200.99931798 -169 193 C-168.56042969 192.32066406 -168.12085938 191.64132812 -167.66796875 190.94140625 C-160.63108298 181.51732379 -148.08637574 177.37565194 -137 175 C-137.845625 174.78085937 -138.69125 174.56171875 -139.5625 174.3359375 C-148.86772238 171.73470488 -156.64959291 168.43718041 -162 160 C-165.05200573 151.91218483 -164.80114775 145.14981403 -161.390625 137.33203125 C-157.57575055 130.93461539 -150.88052161 128.06552438 -144 126 C-143.32066406 125.79503906 -142.64132812 125.59007812 -141.94140625 125.37890625 C-140.29978155 124.89996142 -138.65059913 124.44703726 -137 124 C-137.90878906 123.52433594 -137.90878906 123.52433594 -138.8359375 123.0390625 C-151.9711147 115.7237792 -160.93616138 105.39052271 -165.3125 91 C-166.79270529 85.31871412 -167.78106672 79.86360431 -168 74 C-168.03996094 73.1646875 -168.07992187 72.329375 -168.12109375 71.46875 C-168.56261026 53.80808947 -165.0548767 36.4179723 -153 23 C-133.73705202 3.73705202 -105.67048816 3.08342635 -80.1953125 2.24609375 C-78.26536289 2.18049129 -76.33542119 2.11465569 -74.40548706 2.04859924 C-70.37276743 1.91127603 -66.33998121 1.77619101 -62.30712891 1.64282227 C-57.16755097 1.47275598 -52.02814639 1.29799072 -46.88878059 1.12164211 C-42.90629312 0.9853657 -38.92373789 0.85116216 -34.94115829 0.7176075 C-33.04753725 0.65394665 -31.1539337 0.58976322 -29.26034927 0.52502251 C-26.60087527 0.43449859 -23.94132495 0.34666486 -21.28173828 0.25952148 C-20.51772705 0.23304031 -19.75371582 0.20655914 -18.96655273 0.17927551 C-12.63446594 -0.02367213 -6.34662844 0 0 0 Z M-130.5 39.11328125 C-137.19792776 47.53801851 -138.34631269 56.89142862 -138.3125 67.3125 C-138.32861328 68.29412109 -138.34472656 69.27574219 -138.36132812 70.28710938 C-138.36870522 81.43390453 -135.62632829 90.66726323 -128 99 C-115.7813117 109.00686951 -99.09388633 110.93358432 -83.85888672 109.6015625 C-71.74952623 108.26089362 -61.08774454 104.46332404 -53 95 C-45.12643978 83.20895761 -44.70869315 69.00040609 -46.625 55.3125 C-48.68470891 45.60040036 -53.73653706 37.53924439 -62 32 C-71.42520411 26.66687739 -81.14153852 25.62943704 -91.8125 25.6875 C-93.4059021 25.69487183 -93.4059021 25.69487183 -95.03149414 25.70239258 C-108.80469872 25.90862577 -120.80907727 28.77181046 -130.5 39.11328125 Z M-138.75 189.6640625 C-143.45371388 194.79744255 -145.54961233 199.73904182 -145.3046875 206.85546875 C-144.46768875 212.74665228 -142.10269197 217.50569018 -137.5 221.3125 C-124.09630131 230.25655772 -106.85729743 230.38918997 -91.3125 230.3125 C-90.56564941 230.31100952 -89.81879883 230.30951904 -89.04931641 230.3079834 C-62.93975668 230.38686931 -62.93975668 230.38686931 -40.40625 218.69921875 C-37.10871879 214.71470187 -36.15694825 210.4910084 -35.625 205.4375 C-36.30445953 199.20912096 -38.82400884 194.58411595 -43 190 C-45.61638629 188.41373717 -45.61638629 188.41373717 -48.5625 187.3125 C-49.98755859 186.71888672 -49.98755859 186.71888672 -51.44140625 186.11328125 C-62.37115692 182.69398494 -73.8957818 182.13916437 -85.24414062 181.14013672 C-88.25710299 180.87437347 -91.26917767 180.59986841 -94.28125 180.32421875 C-96.21349545 180.15052679 -98.1457857 179.97733232 -100.078125 179.8046875 C-101.41583954 179.68285599 -101.41583954 179.68285599 -102.78057861 179.55856323 C-116.10692103 178.39723001 -128.64537173 180.05564365 -138.75 189.6640625 Z " fill="#365982" transform="translate(741,116)"/>
<path d="M0 0 C8.2092547 8.34166203 12.63063373 17.88493191 15.9375 28.96875 C16.43378906 27.91816406 16.93007812 26.86757812 17.44140625 25.78515625 C24.79838481 10.45552945 33.09008987 -1.05677354 49.5 -7.46875 C66.43068627 -12.81914003 86.843784 -13.35454253 103.3125 -5.90625 C116.98102564 1.80243028 123.23229348 12.79047095 127.859375 27.2578125 C131.76808902 42.8466015 131.20865946 58.88870556 131.14028788 74.83218956 C131.12762433 78.29278125 131.1265979 81.75337797 131.12423706 85.21398926 C131.11806751 91.74065199 131.10171926 98.26724621 131.08153808 104.79387903 C131.05903656 112.23545307 131.04815014 119.67703071 131.03814721 127.11863041 C131.01734795 142.40204982 130.98072974 157.68537507 130.9375 172.96875 C120.7075 172.96875 110.4775 172.96875 99.9375 172.96875 C99.9281543 169.32650391 99.91880859 165.68425781 99.90917969 161.93164062 C99.87529654 149.84969111 99.81988257 137.76792837 99.75359726 125.68611908 C99.71395718 118.3664264 99.68148903 111.0468389 99.66650391 103.72705078 C99.65340873 97.33965228 99.62624666 90.95248665 99.58288693 84.5652194 C99.56044622 81.1898493 99.546679 77.8150135 99.54561615 74.43952942 C100.11859465 47.59970571 100.11859465 47.59970571 88.44921875 24.3046875 C80.79012579 16.88322749 71.39744793 15.40489842 61.14282227 15.56640625 C49.63090287 16.01982413 40.04148616 20.28258738 31.3125 27.84375 C18.90094717 42.00625708 18.76357794 56.71743315 18.9244194 74.83218956 C18.9465791 78.29289259 18.92293402 81.75330703 18.90454102 85.21398926 C18.87661013 91.74087355 18.88874406 98.26701698 18.91596508 104.79387903 C18.94499891 112.23556485 18.92831504 119.67694071 18.90815353 127.11863041 C18.86775136 142.40231808 18.88961372 157.68504514 18.9375 172.96875 C9.0375 172.96875 -0.8625 172.96875 -11.0625 172.96875 C-11.08231934 169.60437744 -11.10213867 166.24000488 -11.12255859 162.77368164 C-11.18975563 151.60182175 -11.26729457 140.43004913 -11.35002708 129.25829411 C-11.39989188 122.49131024 -11.44633479 115.72433692 -11.484375 108.95727539 C-11.52116213 102.41491363 -11.56794422 95.87266569 -11.62056351 89.33041191 C-11.63895816 86.84646225 -11.65411985 84.36248627 -11.66584396 81.87849617 C-10.58671113 50.24205562 -10.58671113 50.24205562 -24.0625 22.96875 C-33.34421999 15.42013125 -44.57477557 14.87932476 -56.0625 15.96875 C-67.94371811 18.13723462 -77.40726524 23.69576742 -84.52734375 33.4921875 C-88.59744254 40.05819929 -92.16503717 47.19574466 -92.22071838 54.99906921 C-92.23540161 56.55766663 -92.23540161 56.55766663 -92.25038147 58.14775085 C-92.25613693 59.28710587 -92.2618924 60.42646088 -92.26782227 61.6003418 C-92.28267166 63.40053268 -92.28267166 63.40053268 -92.29782104 65.23709106 C-92.32401383 68.52812547 -92.34587379 71.81913555 -92.36582303 75.11021018 C-92.38769039 78.54955896 -92.41507541 81.98886366 -92.44187927 85.42817688 C-92.49179601 91.94104924 -92.53673862 98.45394608 -92.57990164 104.96686631 C-92.62928272 112.38157598 -92.68419762 119.79624141 -92.73958123 127.21090829 C-92.85338564 142.46348289 -92.95949749 157.71609805 -93.0625 172.96875 C-102.9625 172.96875 -112.8625 172.96875 -123.0625 172.96875 C-123.0625 113.56875 -123.0625 54.16875 -123.0625 -7.03125 C-113.1625 -7.03125 -103.2625 -7.03125 -93.0625 -7.03125 C-93.0625 4.84875 -93.0625 16.72875 -93.0625 28.96875 C-91.4125 25.00875 -89.7625 21.04875 -88.0625 16.96875 C-81.68697127 4.74779268 -72.77268051 -2.72505814 -60.0625 -8.03125 C-40.88593406 -13.95979017 -16.09246266 -13.14217784 0 0 Z " fill="#365982" transform="translate(1208.0625,129.03125)"/>
<path d="M0 0 C9.9 0 19.8 0 30 0 C30 80.52 30 161.04 30 244 C19.77 244 9.54 244 -1 244 C-1 232.78 -1 221.56 -1 210 C-2.175625 212.475 -3.35125 214.95 -4.5625 217.5 C-11.45808821 231.47215931 -20.888786 239.7475302 -35.73046875 245 C-55.09972387 250.92416883 -78.02030712 249.52171326 -96 240 C-112.24351973 229.77259869 -119.74637674 214.38828005 -124.2734375 196.4375 C-125.99036792 188.31438832 -126.19037686 180.53377438 -126.23828125 172.23828125 C-126.24235678 171.57461233 -126.2464323 170.91094341 -126.25063133 170.22716331 C-126.27142453 166.70279642 -126.28574588 163.17846748 -126.29516602 159.65405273 C-126.30395542 156.78273842 -126.32466891 153.91191922 -126.35668945 151.04077148 C-126.64963464 124.17890472 -125.91189746 98.08462354 -107 77 C-93.51755526 63.88843157 -75.72567256 59.72723511 -57.41186523 59.75292969 C-41.20693478 60.0585776 -25.93826442 64.24136437 -13.9609375 75.7734375 C-7.70369204 82.87827796 -4.5349245 90.16268875 -1 99 C-0.67 66.33 -0.34 33.66 0 0 Z M-78 93 C-78.61101562 93.40734375 -79.22203125 93.8146875 -79.8515625 94.234375 C-90.11376637 101.91972592 -93.74405692 114.42461443 -95.51904297 126.54394531 C-96.12104078 131.45596224 -96.18015452 136.33726239 -96.203125 141.28125 C-96.20882507 142.25300171 -96.21452515 143.22475342 -96.22039795 144.22595215 C-96.22980309 146.27660042 -96.23636398 148.3272635 -96.24023438 150.37792969 C-96.2498848 153.46317073 -96.28092895 156.54772888 -96.3125 159.6328125 C-96.38988058 174.08208865 -96.27322203 189.04807001 -89 202 C-88.443125 203.010625 -87.88625 204.02125 -87.3125 205.0625 C-79.76415735 214.65093526 -70.2174971 220.49747551 -58 222 C-41.50443622 222.862947 -28.07120222 220.78126125 -14.71484375 210.1875 C-7.36686887 203.39168508 -0.66066605 193.28318095 0.26069641 183.12608337 C0.2676075 181.63269188 0.2676075 181.63269188 0.2746582 180.10913086 C0.28419022 178.97031967 0.29372223 177.83150848 0.30354309 176.65818787 C0.30263168 175.43938431 0.30172028 174.22058075 0.30078125 172.96484375 C0.30506638 171.69459854 0.3093515 170.42435333 0.31376648 169.11561584 C0.31950402 166.42825466 0.32095364 163.74127811 0.31567383 161.05395508 C0.30991601 157.64734615 0.32672874 154.2412875 0.3500185 150.83476925 C0.36850707 147.54479972 0.36456564 144.2548557 0.36328125 140.96484375 C0.372491 139.76020981 0.38170074 138.55557587 0.39118958 137.31443787 C0.3115326 122.46855477 -2.87579423 109.30937365 -13.125 98.1875 C-21.86056734 89.95363754 -33.16709854 85.93593571 -45 85 C-45.65355469 84.94585937 -46.30710938 84.89171875 -46.98046875 84.8359375 C-57.78711049 84.38988475 -69.12576383 86.69748125 -78 93 Z " fill="#365982" transform="translate(128,58)"/>
<path d="M0 0 C9.9 0 19.8 0 30 0 C31.91064299 1.91064299 31.12014611 4.73827895 31.12442017 7.28016663 C31.12082489 8.18359299 31.11722961 9.08701935 31.11352539 10.01782227 C31.11367142 10.96406464 31.11381744 11.91030701 31.1139679 12.88522339 C31.11326836 16.02897392 31.10547409 19.17266601 31.09765625 22.31640625 C31.09579221 24.48974068 31.09436824 26.66307552 31.09336853 28.83641052 C31.08954221 34.56901195 31.07971097 40.30158823 31.06866455 46.03417969 C31.05845287 51.87890279 31.05387143 57.72362993 31.04882812 63.56835938 C31.0380888 75.045584 31.02101102 86.52278991 31 98 C31.45528076 97.0524585 31.91056152 96.10491699 32.37963867 95.12866211 C32.99623334 93.86555238 33.6131964 92.60262244 34.23046875 91.33984375 C34.5282019 90.71766968 34.82593506 90.09549561 35.13269043 89.45446777 C41.6434981 76.21133729 53.03423196 67.85563709 66.72265625 63 C83.80771743 57.78691816 104.99443455 58.04561003 121.4375 65.625 C131.13388563 71.02518185 138.09975429 78.06038488 143 88 C143.37769531 88.75667969 143.75539063 89.51335937 144.14453125 90.29296875 C151.42724441 106.57678807 150.41176795 124.45587123 150.30418181 141.87308502 C150.28519888 145.47380334 150.2836478 149.07453232 150.28010559 152.67529297 C150.27084769 159.46761351 150.24632043 166.25978609 150.21605712 173.05204201 C150.18231609 180.79589646 150.16597801 188.53975865 150.15097082 196.28366852 C150.11976382 212.18921217 150.06483199 228.09455245 150 244 C140.1 244 130.2 244 120 244 C119.970271 238.94558594 119.970271 238.94558594 119.93994141 233.7890625 C119.87277236 222.60522143 119.79523305 211.42146787 119.71247292 200.23773193 C119.6625879 193.46287233 119.61614477 186.68802338 119.578125 179.91308594 C119.54136398 173.3642447 119.49458715 166.81551765 119.44193649 160.26678467 C119.42352864 157.77921747 119.40837158 155.29162383 119.39665604 152.80401611 C120.37204853 121.75755483 120.37204853 121.75755483 107 95 C97.17435881 86.72918555 84.4440099 86.05601272 72.16113281 86.78857422 C61.19212421 87.86168328 49.20216903 93.23124961 41.83837891 101.62695312 C30.95739958 115.67252007 30.83220543 129.38104142 30.9869194 146.66151047 C31.00908213 150.09418703 30.985433 153.5265729 30.96704102 156.95922852 C30.93911234 163.43299097 30.95124244 169.90600642 30.97846508 176.37974644 C31.00750094 183.76097472 30.99081427 191.14189058 30.97065353 198.52312279 C30.9302536 213.68236779 30.95211181 228.8407284 31 244 C20.77 244 10.54 244 0 244 C0 163.48 0 82.96 0 0 Z " fill="#365982" transform="translate(384,58)"/>
<path d="M0 0 C0.86625 0.5775 1.7325 1.155 2.625 1.75 C14.63479771 13.1277031 19.9021192 30.43774541 20.36076355 46.61886597 C20.36929009 48.92022109 20.36187707 51.22167688 20.34057617 53.52294922 C20.34101425 54.79295776 20.34145233 56.06296631 20.34190369 57.37145996 C20.34275318 60.80453849 20.32530052 64.23729296 20.30418181 67.67029715 C20.28523726 71.27636602 20.28365074 74.88244495 20.28010559 78.48855591 C20.27083671 85.29510908 20.24629403 92.10151511 20.21605712 98.90800393 C20.18235098 106.66632214 20.16598664 114.42464793 20.15097082 122.18302131 C20.11973885 138.12211355 20.06479267 154.06100348 20 170 C10.1 170 0.2 170 -10 170 C-10 158.12 -10 146.24 -10 134 C-11.65 137.96 -13.3 141.92 -15 146 C-23.78204976 160.18638808 -35.13072732 168.31251164 -51.33203125 172.45703125 C-69.96602939 176.24930906 -91.66172344 175.48788932 -108 165 C-118.88810893 157.1746976 -124.32735302 146.7785516 -126.55859375 133.734375 C-128.51151581 117.21230876 -127.58612296 99.36566609 -117.23828125 85.66796875 C-112.94381971 80.86635175 -108.17023524 77.66843166 -102.5 74.75 C-101.62251099 74.29246338 -101.62251099 74.29246338 -100.72729492 73.82568359 C-87.55860149 67.50675902 -73.00730592 65.03210663 -58.6875 62.9375 C-57.03485525 62.68694527 -55.38235024 62.43546725 -53.72998047 62.18310547 C-48.82249883 61.4379604 -43.91179504 60.71608394 -39 60 C-38.25030945 59.89024841 -37.5006189 59.78049683 -36.72821045 59.66741943 C-28.15662636 58.4128268 -19.58131224 57.18634672 -11 56 C-10.70107612 43.50651471 -12.06398834 32.42725838 -21 23 C-31.0969287 13.17596126 -45.6196983 12.57864461 -58.8996582 12.63867188 C-78.88407365 13.00608485 -97.90734196 18.81349928 -115.06567383 29.04907227 C-117 30 -117 30 -120 30 C-119.72023292 26.62390404 -119.4240573 23.24943755 -119.125 19.875 C-119.04636719 18.92367187 -118.96773437 17.97234375 -118.88671875 16.9921875 C-117.9526213 6.64526185 -117.9526213 6.64526185 -116 3 C-113.55369548 1.33192799 -111.47058379 0.14096681 -108.8125 -1.0625 C-108.09924561 -1.40047607 -107.38599121 -1.73845215 -106.65112305 -2.08666992 C-74.4249005 -16.97534823 -30.10653929 -22.12799471 0 0 Z M-15.84838867 79.67089844 C-17.40217476 79.89178131 -17.40217476 79.89178131 -18.98735046 80.11712646 C-23.78490573 80.80551245 -28.58151461 81.50027922 -33.37768555 82.19824219 C-35.89375214 82.56263248 -38.41034912 82.92338131 -40.92749023 83.28027344 C-68.24648867 85.75340083 -68.24648867 85.75340083 -90.91015625 99.24609375 C-97.04771645 108.08243929 -97.32647198 118.40673124 -95.50390625 128.83984375 C-93.62861528 135.03783933 -90.7785267 139.35831848 -85.18359375 142.6640625 C-71.1639153 149.92333159 -55.38999249 149.94022887 -40.3671875 145.3203125 C-27.28136879 140.18921421 -17.32622291 130.8457601 -11.43994141 118.09887695 C-8.582089 110.9175592 -9.27215065 103.20695286 -9.5625 95.625 C-9.59771859 94.00267279 -9.62963872 92.38027051 -9.65820312 90.7578125 C-9.73426423 86.83663906 -9.85443034 82.91918302 -10 79 C-11.95962135 79 -13.91299484 79.39576647 -15.84838867 79.67089844 Z " fill="#365982" transform="translate(1020,132)"/>
<path d="M0 0 C4.57113264 -0.24857661 9.13828498 -0.42922838 13.71459961 -0.54931641 C15.26803117 -0.59939063 16.82099631 -0.66748156 18.37280273 -0.75439453 C31.19001185 -1.45388909 31.19001185 -1.45388909 35.42724609 1.94970703 C37.27020345 4.54676166 38.64492049 7.12124949 40 10 C40.91230653 11.51162151 41.83890639 13.01473136 42.78125 14.5078125 C43.69056294 16.04506733 44.59670245 17.58420281 45.5 19.125 C50.69580636 27.88681776 56.04936791 36.5404351 61.47338867 45.16259766 C64.46633721 49.92574449 67.43611145 54.69819468 70.328125 59.5234375 C70.83529053 60.3676123 71.34245605 61.21178711 71.86499023 62.08154297 C72.80827602 63.6575573 73.74559926 65.23716053 74.67602539 66.82080078 C75.73050511 68.58039557 76.85764278 70.29614517 78 72 C78.66 72 79.32 72 80 72 C81.37380336 70.19430965 81.37380336 70.19430965 82.73046875 67.8125 C83.27823975 66.89863525 83.82601074 65.98477051 84.39038086 65.04321289 C84.98343018 64.03895264 85.57647949 63.03469238 86.1875 62 C87.46223085 59.87291181 88.73831479 57.74663404 90.015625 55.62109375 C90.67498047 54.5213623 91.33433594 53.42163086 92.01367188 52.28857422 C95.1000676 47.17872289 98.26453409 42.11890433 101.4375 37.0625 C102.04891846 36.08724365 102.66033691 35.1119873 103.2902832 34.10717773 C104.54234163 32.11032518 105.79470431 30.11366337 107.04736328 28.1171875 C109.11872357 24.8104698 111.18328564 21.49955517 113.24609375 18.1875 C113.93711182 17.07882568 114.62812988 15.97015137 115.34008789 14.82788086 C116.67483417 12.68604145 118.00868684 10.54364485 119.34155273 8.40063477 C119.93782471 7.44471436 120.53409668 6.48879395 121.1484375 5.50390625 C121.67614746 4.65642822 122.20385742 3.8089502 122.74755859 2.93579102 C124 1 124 1 125 0 C127.44830426 -0.08843793 129.86820599 -0.11528752 132.31640625 -0.09765625 C133.04746078 -0.0962413 133.77851532 -0.09482635 134.53172302 -0.09336853 C136.87535632 -0.08775408 139.21889539 -0.07519922 141.5625 -0.0625 C143.14778508 -0.05748686 144.73307166 -0.05292363 146.31835938 -0.04882812 C150.2122761 -0.03777997 154.10612205 -0.02050572 158 0 C156.86180068 3.69635326 155.67190018 6.86494261 153.5234375 10.08203125 C153.02610107 10.83572998 152.52876465 11.58942871 152.01635742 12.3659668 C151.47470947 13.17332275 150.93306152 13.98067871 150.375 14.8125 C149.19042926 16.60612598 148.00688209 18.40042827 146.82421875 20.1953125 C146.19950684 21.14051758 145.57479492 22.08572266 144.93115234 23.05957031 C141.63828053 28.07339435 138.41456011 33.13116551 135.1875 38.1875 C133.83984999 40.29557691 132.49219367 42.40364978 131.14453125 44.51171875 C129.40242909 47.23864954 127.66051109 49.96569772 125.91888428 52.69293213 C124.10437373 55.53429092 122.28955904 58.37545412 120.47387695 61.21606445 C119.11614561 63.34039204 117.75916148 65.46519745 116.40307617 67.59057617 C115.78279541 68.56099854 115.16251465 69.5314209 114.5234375 70.53125 C113.93530273 71.45679688 113.34716797 72.38234375 112.74121094 73.3359375 C111.59062645 75.09633822 110.4012462 76.83204698 109.17285156 78.5390625 C108.61307617 79.32023437 108.05330078 80.10140625 107.4765625 80.90625 C106.97463379 81.57978516 106.47270508 82.25332031 105.95556641 82.94726562 C104.66488277 85.71989414 105.07947644 87.12195376 106 90 C106.98062339 92.02379148 106.98062339 92.02379148 108.2734375 93.95703125 C108.75844727 94.72281494 109.24345703 95.48859863 109.74316406 96.27758789 C110.28166992 97.11410889 110.82017578 97.95062988 111.375 98.8125 C117.1600511 107.97216424 122.74157739 117.23535069 128.25 126.5625 C134.59068575 137.28379628 140.97464244 147.9768539 147.4375 158.625 C147.79453003 159.21427277 148.15156006 159.80354553 148.51940918 160.41067505 C149.53090553 162.07942059 150.54470454 163.74676972 151.55859375 165.4140625 C152.12892334 166.3520166 152.69925293 167.2899707 153.28686523 168.25634766 C154.5390002 170.26169079 155.85852965 172.2253895 157.21508789 174.16162109 C159 177 159 177 159 180 C131.08285388 182.46928321 131.08285388 182.46928321 123.72949219 178.89697266 C120.23227184 175.6476649 118.82874663 171.24642925 117.20214844 166.85595703 C114.94614999 161.49635716 111.76740553 156.60604962 108.76190186 151.64044189 C106.87611035 148.50474531 105.04265285 145.3387559 103.203125 142.17578125 C99.1643521 135.25737969 95.05828119 128.38072969 90.91699219 121.52319336 C87.62612505 116.06914348 84.4267248 110.57240853 81.3046875 105.01953125 C80.15618187 102.86617139 80.15618187 102.86617139 78 102 C77.74887451 102.68868164 77.49774902 103.37736328 77.23901367 104.08691406 C75.81471846 107.43562155 74.04647792 110.49837721 72.17578125 113.609375 C71.79749176 114.24494324 71.41920227 114.88051147 71.02944946 115.53533936 C69.7939777 117.60901093 68.55336078 119.67954943 67.3125 121.75 C66.45163531 123.19189673 65.59104224 124.63395566 64.73071289 126.07617188 C62.56494963 129.70470124 60.39478562 133.33057737 58.22351074 136.95581055 C55.74809231 141.09163386 53.27987234 145.23175009 50.81567383 149.37426758 C49.57190614 151.44419578 48.31146751 153.50420525 47.03393555 155.5534668 C44.28205395 159.98597099 41.81253004 164.19100011 40.01171875 169.09765625 C36.57291681 177.68154281 36.57291681 177.68154281 32 180 C21.14008098 181.92971512 9.92567499 180.96638051 -1 180 C-0.09519335 175.86118146 1.83342318 172.59827361 4 169 C4.43513916 168.2685376 4.87027832 167.5370752 5.31860352 166.78344727 C9.83506118 159.21709388 14.42858443 151.69674382 19.0133667 144.17166138 C25.93427882 132.81144914 32.73572728 121.38242982 39.49194336 109.92358398 C40.24716903 108.64563273 41.00245721 107.3677184 41.7578125 106.08984375 C42.11676102 105.47966904 42.47570953 104.86949432 42.84553528 104.24082947 C45.67582159 99.46016442 48.71611649 94.84071497 51.87841797 90.27172852 C53.19098734 88.10973584 53.19098734 88.10973584 52.81518555 85.92822266 C51.96590475 83.91935181 51.01894631 82.16755133 49.83984375 80.33203125 C49.38448242 79.61708496 48.92912109 78.90213867 48.45996094 78.16552734 C47.95754883 77.38902832 47.45513672 76.6125293 46.9375 75.8125 C46.40801758 74.98443848 45.87853516 74.15637695 45.33300781 73.30322266 C44.17409315 71.4921266 43.01268315 69.6826255 41.84912109 67.87451172 C39.96273976 64.94207789 38.08394306 62.00490894 36.20703125 59.06640625 C33.5319388 54.87939192 30.85340546 50.69461282 28.171875 46.51171875 C25.34437045 42.10057181 22.52178813 37.68633286 19.703125 33.26953125 C18.99897461 32.16689941 18.29482422 31.06426758 17.56933594 29.92822266 C16.23836549 27.84383123 14.90821948 25.75891303 13.57910156 23.67333984 C9.65860583 17.53740386 5.63494278 11.4917638 1.48632812 5.50708008 C0 3 0 3 0 0 Z " fill="#365982" transform="translate(192,122)"/>
<path d="M0 0 C5.54837259 4.93188675 7.54168032 11.42842342 8.27406371 18.73368847 C8.38110411 21.72509883 8.39531581 24.70268358 8.3742218 27.69593811 C8.37819621 28.83335982 8.38217061 29.97078153 8.38626546 31.14267057 C8.39584664 34.93256401 8.3840953 38.72208026 8.37231445 42.51196289 C8.37308619 45.23772258 8.37834849 47.96346953 8.38337708 50.68922424 C8.39283799 57.31104027 8.3862892 63.93274689 8.37411413 70.55455477 C8.36045444 78.27294622 8.36213547 85.99131197 8.36424746 93.70971244 C8.36743335 107.48463862 8.35579231 121.259513 8.33618164 135.03442383 C8.31717552 148.38828102 8.31009557 161.74207752 8.31567383 175.09594727 C8.32173697 189.65355625 8.32154502 204.21113859 8.310188 218.76874536 C8.30898076 220.32212762 8.30777477 221.87550988 8.30657005 223.42889214 C8.30596651 224.1930985 8.30536298 224.95730487 8.30474115 225.74466901 C8.30086845 231.11965427 8.3012531 236.49462958 8.3031559 241.86961555 C8.30528196 248.42270687 8.30002258 254.97574514 8.28554235 261.52882154 C8.27831837 264.86971246 8.27528041 268.21046189 8.27878571 271.55136871 C8.2820133 275.17801274 8.27291076 278.80442529 8.26069641 282.43104553 C8.26447573 283.47969239 8.26825506 284.52833924 8.27214891 285.60876328 C8.2203282 294.31755625 7.65343935 302.01633963 2 309 C-1.08106179 311.97835973 -3.72064511 312.83218216 -8 313 C-13.18392242 311.39119649 -16.06210444 309.57005976 -19 305 C-20.62916105 301.4932201 -21.25103456 298.75097591 -21.25726891 294.89368725 C-21.2637178 293.88196428 -21.27016669 292.8702413 -21.276811 291.82786006 C-21.2737138 290.72339716 -21.2706166 289.61893427 -21.26742554 288.48100281 C-21.27195665 287.30222858 -21.27648776 286.12345435 -21.28115618 284.90895969 C-21.29162677 281.64060423 -21.29312595 278.37238714 -21.29076743 275.10402024 C-21.29035922 271.57766209 -21.30139887 268.05133675 -21.31088257 264.5249939 C-21.32749262 257.61744252 -21.33299212 250.70992528 -21.33410732 243.80235561 C-21.33505781 238.1870728 -21.33916816 232.57180124 -21.34550858 226.95652199 C-21.36312116 211.03403661 -21.37234744 195.11157819 -21.37084763 179.189083 C-21.37076772 178.33077008 -21.3706878 177.47245717 -21.37060547 176.58813477 C-21.37052371 175.72877309 -21.37044195 174.86941141 -21.37035771 173.98400847 C-21.36954485 160.05755313 -21.38868248 146.13120596 -21.4168822 132.20478191 C-21.44561304 117.90314033 -21.45942238 103.6015515 -21.45769465 89.29988033 C-21.45703081 81.27141904 -21.46252052 73.24307114 -21.48405075 65.21463585 C-21.50226522 58.37883202 -21.50660778 51.54319297 -21.4930319 44.70737537 C-21.48650345 41.22075038 -21.48638013 37.73444149 -21.5037384 34.2478466 C-21.51914486 30.46493064 -21.50991162 26.68284583 -21.49447632 22.89994812 C-21.50476344 21.80217739 -21.51505057 20.70440667 -21.52564943 19.57337016 C-21.46819739 13.20485454 -20.71516472 8.2930181 -17 3 C-11.67086017 -2.19591133 -6.91613264 -2.96208868 0 0 Z " fill="#365982" transform="translate(1433,59)"/>
<path d="M0 0 C0.99 14.355 0.99 14.355 2 29 C-6 28 -6 28 -9.5234375 27.453125 C-26.46331816 25.24523044 -43.06357917 27.74336441 -56.94921875 38.2265625 C-63.33659835 43.71639763 -67.98077857 49.61686498 -72 57 C-72.51573074 57.8107901 -73.03146149 58.6215802 -73.56282043 59.4569397 C-75.58671087 64.44641078 -75.43957712 68.99281022 -75.43237305 74.32958984 C-75.4425647 75.46188019 -75.45275635 76.59417053 -75.46325684 77.76077271 C-75.49339172 81.49421128 -75.50265386 85.22739327 -75.51171875 88.9609375 C-75.528565 91.55311944 -75.54671517 94.1452932 -75.56611633 96.73745728 C-75.6087748 102.85712512 -75.63830598 108.97672664 -75.66143972 115.09649527 C-75.68852229 122.06635067 -75.73243182 129.03606864 -75.77772844 136.00582576 C-75.87049247 150.33715364 -75.93998978 164.66849843 -76 179 C-86.23 179 -96.46 179 -107 179 C-107 119.6 -107 60.2 -107 -1 C-97.1 -1 -87.2 -1 -77 -1 C-77 12.53 -77 26.06 -77 40 C-75.35 36.04 -73.7 32.08 -72 28 C-65.05083498 15.04928337 -55.82112553 4.57748544 -41.8125 -0.8125 C-27.75825939 -4.86032243 -13.70186127 -5.13819798 0 0 Z " fill="#365982" transform="translate(874,123)"/>
</svg>
